<?xml version="1.0" encoding="UTF-8" standalone="no"?>
<svg
   xmlns:dc="http://purl.org/dc/elements/1.1/"
   xmlns:cc="http://creativecommons.org/ns#"
   xmlns:rdf="http://www.w3.org/1999/02/22-rdf-syntax-ns#"
   xmlns:svg="http://www.w3.org/2000/svg"
   xmlns="http://www.w3.org/2000/svg"
   xmlns:sodipodi="http://sodipodi.sourceforge.net/DTD/sodipodi-0.dtd"
   xmlns:inkscape="http://www.inkscape.org/namespaces/inkscape"
   version="1.1"
   id="Layer_1"
   x="0px"
   y="0px"
   viewBox="0 0 400 300"
   xml:space="preserve"
   sodipodi:docname="error-404-new.svg"
   width="400"
   height="300"
   inkscape:version="1.0.1 (3bc2e813f5, 2020-09-07)"><metadata
   id="metadata187"><rdf:RDF><cc:Work
       rdf:about=""><dc:format>image/svg+xml</dc:format><dc:type
         rdf:resource="http://purl.org/dc/dcmitype/StillImage" /><dc:title></dc:title></cc:Work></rdf:RDF></metadata><defs
   id="defs185" /><sodipodi:namedview
   pagecolor="#ffffff"
   bordercolor="#666666"
   borderopacity="1"
   objecttolerance="10"
   gridtolerance="10"
   guidetolerance="10"
   inkscape:pageopacity="0"
   inkscape:pageshadow="2"
   inkscape:window-width="1500"
   inkscape:window-height="938"
   id="namedview183"
   showgrid="false"
   inkscape:zoom="1.7075472"
   inkscape:cx="246.17231"
   inkscape:cy="247.69488"
   inkscape:window-x="-6"
   inkscape:window-y="-6"
   inkscape:window-maximized="1"
   inkscape:current-layer="Layer_1" />
<style
   type="text/css"
   id="style2">
	.st0{fill:#625F5B;}
	.st1{fill:#84817D;}
	.st2{fill:#797672;}
	.st3{fill:#BDD8F9;}
	.st4{fill:#81B5F3;}
	.st5{fill:#60A2F0;}
	.st6{fill:#3085E9;}
	.st7{fill:#77E3FB;}
	.st8{fill:#E56B56;}
	.st9{fill:#CCCAC7;}
	.st10{fill:#56534F;}
	.st11{fill:#FFFFFF;}
	.st12{fill:#908D89;}
	.st13{fill:none;stroke:#F7B548;stroke-width:1.1872;stroke-miterlimit:10;}
	.st14{fill:#B3AFAB;}
	.st15{fill:#29C3E5;}
	.st16{fill:#179BB8;}
	.st17{fill:#F7B548;}
	.st18{fill:#D5D3D0;}
	.st19{fill:#BBB8B4;}
	.st20{fill:#666666;}
	.st21{fill:#E8A53F;}
	.st22{fill:#E6E4E3;}
	.st23{fill:#FCCF84;}
	.st24{fill:#9C9894;}
	.st25{fill:#F3F3F3;}
	.st26{fill:url(#SVGID_1_);}
	.st27{fill:#8A6FE8;}
	.st28{fill:url(#SVGID_2_);}
	.st29{fill:url(#SVGID_3_);}
	.st30{fill:#522CD5;}
	.st31{fill:url(#SVGID_4_);}
	.st32{fill:url(#SVGID_5_);}
	.st33{fill:url(#SVGID_6_);}
	.st34{fill:url(#SVGID_7_);}
	.st35{fill:url(#SVGID_8_);}
	.st36{fill:url(#SVGID_9_);}
	.st37{fill:#D8CFF7;}
	.st38{fill:#512BD4;}
	.st39{fill:url(#SVGID_10_);}
	.st40{fill:#A08BE8;}
	.st41{fill:#8065E0;}
	.st42{fill:url(#SVGID_11_);}
	.st43{fill:url(#SVGID_12_);}
	.st44{fill:#8C9091;}
	.st45{fill:#1FB1D1;}
	.st46{fill:#ED9583;}
	.st47{fill:#1595B2;}
	.st48{fill:#E86E58;}
	.st49{fill:#F8BB55;}
	.st50{fill:#E29E3B;}
	.st51{fill:#F8B84F;}
	.st52{fill:#28C2D1;}
	.st53{fill:#CF5746;}
	.st54{fill:#FFE5B9;}
	.st55{fill:#0F849E;}
	.st56{fill:#BBF1FD;}
	.st57{fill:#22B5D6;}
	.st58{fill:#5C2D91;}
	.st59{fill:#C5D43B;}
	.st60{fill:#E1EA95;}
	.st61{fill:#D8E8FB;}
	.st62{fill:#8EE8FC;}
	.st63{fill:#DDDBDA;}
	.st64{fill:#A3C9F6;}
	.st65{fill:#DF9B39;}
	.st66{fill:#2980E7;}
	.st67{fill:url(#SVGID_13_);}
	.st68{fill:url(#SVGID_14_);}
	.st69{fill:#4995EE;}
	.st70{fill:#0B7891;}
	.st71{fill:#60DEFA;}
	.st72{fill:#1DACCC;}
	.st73{fill:#138FAB;}
	.st74{fill:#27BEE0;}
	.st75{fill:#3E8EED;}
	.st76{fill:#FDD696;}
	.st77{fill:#CAE0FA;}
	.st78{fill:#1C77E2;}
	.st79{fill:#98C2F5;}
	.st80{fill:#EEEDEC;}
	.st81{fill:#42403C;}
	.st82{fill:#605D5A;}
	.st83{fill:url(#SVGID_15_);}
	.st84{fill:#E1DFDD;}
	.st85{fill:url(#SVGID_16_);}
	.st86{fill:url(#SVGID_17_);}
	.st87{fill:url(#SVGID_18_);}
	.st88{fill:url(#SVGID_19_);}
	.st89{fill:url(#SVGID_20_);}
	.st90{fill:url(#SVGID_21_);}
	.st91{fill:url(#SVGID_22_);}
	.st92{fill:url(#SVGID_23_);}
	.st93{fill:url(#SVGID_24_);}
	.st94{fill:url(#SVGID_25_);}
	.st95{fill:url(#SVGID_26_);}
	.st96{fill:url(#SVGID_27_);}
	.st97{fill:url(#SVGID_28_);}
	.st98{fill:url(#SVGID_29_);}
	.st99{fill:none;}
</style>
<g
   id="g180"
   transform="translate(-112)">
	
		<radialGradient
   id="SVGID_1_"
   cx="-654.68439"
   cy="641.13049"
   r="1.0173"
   gradientTransform="matrix(-60.6715,-15.2947,-15.2947,60.6715,-29630.742,-48797.41)"
   gradientUnits="userSpaceOnUse">
		<stop
   offset="0.4744"
   style="stop-color:#A08BE8"
   id="stop4" />
		<stop
   offset="0.8618"
   style="stop-color:#8065E0"
   id="stop6" />
	</radialGradient>
	<path
   class="st26"
   d="m 315.5,165.3 c 8.1,-14.7 8.6,-27.9 8.6,-27.9 l 3.7,0.9 h 0.1 c 2,-30.2 -17.8,-58.4 -48.2,-66.1 -34.2,-8.6 -69,12.1 -77.6,46.3 -8.6,34.2 12.1,69 46.3,77.6 27,6.8 54.3,-4.7 68.9,-26.6 0.6,-0.9 1,-2.8 -1.8,-4.2 z"
   id="path9"
   style="fill:url(#SVGID_1_)" />
	<path
   class="st27"
   d="m 230.2,192.5 -17.4,-1.8 c -3.1,-0.3 -5.9,1.9 -6.2,5 v 0 c -0.3,3.1 1.9,5.9 5,6.2 l 17.4,1.8 c 3.1,0.3 5.9,-1.9 6.2,-5 v 0 c 0.4,-3.1 -1.9,-5.9 -5,-6.2 z"
   id="path11" />
	<radialGradient
   id="SVGID_2_"
   cx="280.69312"
   cy="315.21201"
   r="91.418098"
   gradientUnits="userSpaceOnUse">
		<stop
   offset="0.4044"
   style="stop-color:#E4DEF8"
   id="stop13" />
		<stop
   offset="0.6476"
   style="stop-color:#D1C5F4"
   id="stop15" />
	</radialGradient>
	<ellipse
   class="st28"
   cx="284.89999"
   cy="273.89999"
   rx="129.10001"
   ry="6.3000002"
   id="ellipse18"
   style="fill:url(#SVGID_2_)" />
	
		<linearGradient
   id="SVGID_3_"
   gradientUnits="userSpaceOnUse"
   x1="274.71011"
   y1="354.35181"
   x2="284.76379"
   y2="306.47269"
   gradientTransform="matrix(1,0,0,-1,0,532)">
		<stop
   offset="0"
   style="stop-color:#522CD5"
   id="stop20" />
		<stop
   offset="0.4397"
   style="stop-color:#8A6FE8"
   id="stop22" />
	</linearGradient>
	<path
   class="st29"
   d="m 289.8,224.5 c 0.1,-10 -1.3,-30.4 -11.7,-47.5 l -10.1,6.2 c 9.4,15.5 10.1,33.6 9.9,41.5 0,0.5 6.1,1.1 11.9,-0.2 z"
   id="path25"
   style="fill:url(#SVGID_3_)" />
	<path
   class="st30"
   d="m 277.9,224.4 h 9.4 l 8.8,50.2 -18.9,0.1 c -1.4,0 -2.5,-1.2 -2.4,-2.6 z"
   id="path27" />
	
		<linearGradient
   id="SVGID_4_"
   gradientUnits="userSpaceOnUse"
   x1="280.77039"
   y1="307.90619"
   x2="310.63739"
   y2="254.6573"
   gradientTransform="matrix(1,0,0,-1,0,532)">
		<stop
   offset="0"
   style="stop-color:#522CD5"
   id="stop29" />
		<stop
   offset="0.4397"
   style="stop-color:#8A6FE8"
   id="stop31" />
	</linearGradient>
	<path
   class="st31"
   d="m 316.2,261.4 c 1.6,1.3 1.6,3.1 1.5,5.1 l -0.4,6 c -0.1,1.1 -1,2 -2.1,2 l -19.6,0.1 c -1.2,0 -2.1,-1 -2.1,-2.2 l 0.1,-6.2 c 0.1,-2.3 -0.6,-3.1 -2.4,-5.2 -3,-3.6 -11.9,-23.5 -11.1,-36.5 h 9.7 c 0.7,7.6 10.8,24.7 26.4,36.9 z"
   id="path34"
   style="fill:url(#SVGID_4_)" />
	
		<radialGradient
   id="SVGID_5_"
   cx="-602.58862"
   cy="610.55731"
   r="1.0173"
   gradientTransform="matrix(20.3477,-0.09259904,-0.09259904,-20.3477,12622.432,12620.348)"
   gradientUnits="userSpaceOnUse">
		<stop
   offset="3.400000e-02"
   style="stop-color:#522CD5"
   id="stop36" />
		<stop
   offset="0.9955"
   style="stop-color:#8A6FE8"
   id="stop38" />
	</radialGradient>
	<path
   class="st32"
   d="m 317.6,266.5 c 0.1,-1.4 0.1,-2.7 -0.4,-3.8 l -24.5,0.1 c 0.7,1 1,1.9 0.9,3.3 l -0.1,6.2 c -0.1,1.2 0.8,2.2 2.1,2.2 l 19.6,-0.1 c 1.1,0 2,-0.9 2.1,-2 z"
   id="path41"
   style="fill:url(#SVGID_5_)" />
	
		<linearGradient
   id="SVGID_6_"
   gradientUnits="userSpaceOnUse"
   x1="252.7478"
   y1="354.26709"
   x2="243.1293"
   y2="306.2963"
   gradientTransform="matrix(1,0,0,-1,0,532)">
		<stop
   offset="0"
   style="stop-color:#522CD5"
   id="stop43" />
		<stop
   offset="0.4397"
   style="stop-color:#8A6FE8"
   id="stop45" />
	</linearGradient>
	<path
   class="st33"
   d="m 238,224.7 c -0.2,-10 1,-30.5 11.3,-47.6 l 10.2,6.1 c -9.3,15.6 -9.8,33.7 -9.5,41.6 0,0.5 -6.1,1.2 -12,-0.1 z"
   id="path48"
   style="fill:url(#SVGID_6_)" />
	
		<linearGradient
   id="SVGID_7_"
   gradientUnits="userSpaceOnUse"
   x1="244.0284"
   y1="307.397"
   x2="244.25729"
   y2="257.1106"
   gradientTransform="matrix(1,0,0,-1,0,532)">
		<stop
   offset="0"
   style="stop-color:#522CD5"
   id="stop50" />
		<stop
   offset="0.4397"
   style="stop-color:#8A6FE8"
   id="stop52" />
	</linearGradient>
	<path
   class="st34"
   d="m 227.8,265.2 c 0,-1.3 0.2,-2.5 0.7,-4.5 8.8,-24 9.5,-36.1 9.5,-36.1 l 12,-0.1 c 0,0 0.8,11.9 9.8,35.8 0.7,1.7 0.8,3.3 0.9,4.7 l 0.1,7.7 c 0,1.2 -0.9,2.1 -2.1,2.1 h -0.6 l -27.6,0.1 h -0.6 c -1.2,0 -2.1,-0.9 -2.1,-2.1 z"
   id="path55"
   style="fill:url(#SVGID_7_)" />
	
		<radialGradient
   id="SVGID_8_"
   cx="-679.81512"
   cy="622.87677"
   r="1.0173"
   gradientTransform="matrix(-22.3078,0.1016,0.1016,22.3078,-14983.609,-13572.979)"
   gradientUnits="userSpaceOnUse">
		<stop
   offset="3.400000e-02"
   style="stop-color:#522CD5"
   id="stop57" />
		<stop
   offset="0.9955"
   style="stop-color:#8A6FE8"
   id="stop59" />
	</radialGradient>
	<path
   class="st35"
   d="m 227.8,265.2 c 0,-0.2 0,-0.4 0,-0.6 0.1,-0.7 0.4,-1.4 1.8,-1.4 l 29.5,-0.1 c 1.1,0 1.4,0.9 1.5,1.4 0,0.2 0,0.5 0,0.7 l 0.1,7.7 c 0,0.7 -0.4,1.4 -0.9,1.7 -0.3,0.2 -0.7,0.4 -1.2,0.4 H 258 l -27.6,0.1 h -0.6 c -0.6,0 -1.1,-0.2 -1.5,-0.6 -0.4,-0.4 -0.6,-0.9 -0.6,-1.5 z"
   id="path62"
   style="fill:url(#SVGID_8_)" />
	<path
   class="st37"
   d="m 309.8,179.1 -107,-27 c 1.4,4.7 3.3,9.2 5.6,13.4 l 90,22.7 c 4.1,-2.6 7.9,-5.6 11.4,-9.1 z"
   id="path64" />
	<path
   class="st38"
   d="m 273.1,185.4 20.1,5.1 4.5,-17.8 -20.1,-5.1 z"
   id="path66" />
	<g
   id="g76">
		<path
   class="st11"
   d="m 278.7,179.7 c -0.1,0 -0.2,-0.1 -0.3,-0.2 -0.1,-0.1 -0.1,-0.2 -0.1,-0.4 0,-0.1 0.1,-0.2 0.2,-0.3 0.1,-0.1 0.2,-0.1 0.4,0 0.1,0 0.2,0.1 0.3,0.2 0.1,0.1 0.1,0.2 0.1,0.4 0,0.1 -0.1,0.2 -0.2,0.3 -0.2,0.1 -0.3,0.1 -0.4,0 z"
   id="path68" />
		<path
   class="st11"
   d="m 284,181 -0.9,-0.2 -1.4,-4.2 c 0,-0.1 -0.1,-0.2 -0.1,-0.3 v 0 c 0,0.1 -0.1,0.3 -0.1,0.7 l -0.8,3.2 -0.8,-0.2 1.3,-4.9 0.9,0.2 1.3,4.1 c 0.1,0.2 0.1,0.3 0.1,0.3 v 0 c 0,-0.1 0.1,-0.4 0.1,-0.7 l 0.8,-3.2 0.8,0.2 z"
   id="path70" />
		<path
   class="st11"
   d="m 287.7,182 -2.7,-0.7 1.3,-4.9 2.6,0.7 -0.2,0.7 -1.8,-0.5 -0.4,1.4 1.6,0.4 -0.2,0.7 -1.6,-0.4 -0.4,1.5 1.9,0.5 z"
   id="path72" />
		<path
   class="st11"
   d="m 292.6,178.8 -1.4,-0.4 -1.1,4.2 -0.8,-0.2 1.1,-4.2 -1.4,-0.4 0.2,-0.7 3.5,0.9 z"
   id="path74" />
	</g>
	
		<radialGradient
   id="SVGID_9_"
   cx="-654.28632"
   cy="640.2854"
   r="1.0173"
   gradientTransform="matrix(-62.875,-15.8502,-15.8502,62.875,-30664.297,-50501.559)"
   gradientUnits="userSpaceOnUse">
		<stop
   offset="9.330000e-02"
   style="stop-color:#E1DFDD"
   id="stop78" />
		<stop
   offset="0.6573"
   style="stop-color:#FFFFFF"
   id="stop80" />
	</radialGradient>
	<path
   class="st36"
   d="m 315.6,165.3 c 8,-14.5 8.6,-27.6 8.6,-27.9 l -64.3,-16.2 c 0,0 -3.9,-1.4 -4.9,2.3 -0.9,3.7 -3.4,14.2 -6.3,25.8 -0.6,2.4 1.1,4 2.6,4.4 0,0 62.1,13.8 64.3,11.6 z"
   id="path83"
   style="fill:url(#SVGID_9_)" />
	<path
   class="st40"
   d="m 275.8,155.3 c 0,0 11.9,-5.3 14.2,-6.3 2.3,-1 4,-0.6 5.4,1.4 1.4,2 9.3,12.2 9.3,12.2 z"
   id="path85" />
	<path
   class="st38"
   d="m 316.9,170.3 c 0,0 2.7,-2.9 -1.3,-4.9 0,0 -63.2,-16 -63.2,-16 -1.5,-0.4 -3.1,-1.7 -2.9,-3.2 -0.3,1 -0.5,2.1 -0.8,3.1 -0.5,2.2 0.8,3.7 2.2,4.3 0.1,0.1 0.3,0.1 0.4,0.1 l 4.3,1.1 z"
   id="path87" />
	<g
   id="g93">
		<path
   class="st38"
   d="m 314,148.2 c 1.2,-4.5 0,-8.7 -2.7,-9.4 -2.7,-0.7 -5.8,2.3 -7,6.8 -1.2,4.5 0,8.7 2.7,9.4 2.7,0.7 5.8,-2.4 7,-6.8 z"
   id="path89" />
		<path
   class="st41"
   d="m 310.2,142.5 c 1.2,-0.7 2.7,-0.8 4,-0.4 0.5,1.7 0.4,3.8 -0.1,6 -0.3,1.1 -0.7,2.2 -1.2,3.1 -1.7,0.1 -3.3,-0.8 -4.2,-2.3 -1.4,-2.2 -0.7,-5.1 1.5,-6.4 z"
   id="path91" />
	</g>
	<path
   class="st30"
   d="m 266.4,146.2 c -0.6,-0.3 -1.1,-0.8 -1.1,-1.5 0,-1 0.7,-1.8 1.6,-1.9 l 9.4,-0.6 -6.7,-6.9 c -0.6,-0.7 -0.7,-1.8 0.1,-2.5 0.8,-0.7 1.8,-0.7 2.5,0.1 l 9.3,9.6 c 0.5,0.5 0.5,1.2 0.4,1.8 -0.3,0.6 -0.9,1.1 -1.5,1.1 l -13.2,0.9 c -0.3,0 -0.6,0 -0.8,-0.1 z"
   id="path95" />
	<g
   id="g104">
		
			<linearGradient
   id="SVGID_10_"
   gradientUnits="userSpaceOnUse"
   x1="911.57617"
   y1="-1952.4332"
   x2="959.76178"
   y2="-1952.4332"
   gradientTransform="matrix(0.9246,-0.381,0.381,0.9246,82.3623,2335.5417)">
			<stop
   offset="0.3344"
   style="stop-color:#9780E6"
   id="stop97" />
			<stop
   offset="0.8488"
   style="stop-color:#8A6FE8"
   id="stop99" />
		</linearGradient>
		<path
   class="st39"
   d="m 208,207.1 c -21,-14 -29.5,-24.2 -29.4,-35.2 0.1,-12.7 12.2,-23 33.1,-36.3 l 6.5,10.2 c -14.2,9.1 -27.4,18.6 -27.5,26.2 -0.1,6 7.8,14.2 24,25 z"
   id="path102"
   style="fill:url(#SVGID_10_)" />
	</g>
	
		<radialGradient
   id="SVGID_11_"
   cx="-572.39801"
   cy="605.94922"
   r="1.0173"
   gradientTransform="matrix(11.5396,-0.05251476,-0.05251476,-11.5396,6849.4634,7099.8701)"
   gradientUnits="userSpaceOnUse">
		<stop
   offset="0"
   style="stop-color:#8065E0"
   id="stop106" />
		<stop
   offset="1"
   style="stop-color:#512BD4"
   id="stop108" />
	</radialGradient>
	<path
   class="st42"
   d="m 214.6,153.2 c 6.5,0 11.7,-5.3 11.7,-11.7 0,-6.5 -5.3,-11.7 -11.7,-11.7 -6.5,0 -11.7,5.3 -11.7,11.7 -0.1,6.5 5.2,11.7 11.7,11.7 z"
   id="path111"
   style="fill:url(#SVGID_11_)" />
	<path
   class="st70"
   d="m 334.9,169.3 v 0 L 203.4,233 c -5.9,2.9 -12.8,0.3 -15.3,-5.7 -2.6,-6 0.1,-13.1 5.9,-16 l 130.7,-63.7 v 0 z"
   id="path113" />
	<path
   class="st72"
   d="m 306.6,156.5 10.2,21.6 -113.4,55 c -5.9,2.9 -12.8,0.3 -15.3,-5.7 -2.6,-6 0.1,-13.1 5.9,-16 z"
   id="path115" />
	<path
   class="st27"
   d="m 198.4,206.8 4.2,15 c 0.8,3 3.9,4.8 6.9,4 3,-0.8 4.8,-3.9 4,-6.9 l -3,-11.7 z"
   id="path117" />
	<path
   class="st27"
   d="m 204.5,207.6 7,14.6 c 1.4,2.8 4.8,4 7.6,2.6 2.8,-1.4 4,-4.8 2.6,-7.6 l -5.2,-10.9 z"
   id="path119" />
	<path
   class="st27"
   d="m 208.6,204.9 11.6,11.3 c 2.2,2.2 5.8,2.2 8,-0.1 2.2,-2.2 2.2,-5.8 -0.1,-8 l -11.8,-11.6 z"
   id="path121" />
	
		<radialGradient
   id="SVGID_12_"
   cx="-1484.5718"
   cy="-7757.1641"
   r="11.874"
   gradientTransform="matrix(0.9964,0.08534886,-0.08534886,0.9964,1026.1978,8052.9927)"
   gradientUnits="userSpaceOnUse">
		<stop
   offset="0"
   style="stop-color:#8065E0"
   id="stop123" />
		<stop
   offset="1"
   style="stop-color:#512BD4"
   id="stop125" />
	</radialGradient>
	<circle
   class="st43"
   cx="209"
   cy="202.10001"
   r="11.9"
   id="circle128"
   style="fill:url(#SVGID_12_)" />
	<g
   id="g150">
		<radialGradient
   id="SVGID_13_"
   cx="385.8602"
   cy="129.2027"
   r="65.809402"
   gradientUnits="userSpaceOnUse">
			<stop
   offset="0.4744"
   style="stop-color:#A08BE8"
   id="stop130" />
			<stop
   offset="0.8618"
   style="stop-color:#8065E0"
   id="stop132" />
		</radialGradient>
		<path
   class="st67"
   d="m 396.6,60.7 c -36.4,-1.5 -72.1,28.4 -73.6,64.8 -1.5,36.4 31.6,70.8 68,72.3 9,0.4 18,-2.6 25.9,-5.6 -1.1,-1.1 -2.6,-2.3 -4.6,-3.3 26.9,-44.5 35,-90.6 36.4,-102 C 437.3,71.1 417.6,61.5 396.6,60.7 Z"
   id="path135"
   style="fill:url(#SVGID_13_)" />
		<radialGradient
   id="SVGID_14_"
   cx="440.9342"
   cy="113.9675"
   r="196.7072"
   gradientUnits="userSpaceOnUse">
			<stop
   offset="9.330000e-02"
   style="stop-color:#E1DFDD"
   id="stop137" />
			<stop
   offset="0.6573"
   style="stop-color:#FFFFFF"
   id="stop139" />
		</radialGradient>
		<path
   class="st68"
   d="m 446.7,87.3 -81.6,-23 c -26.3,7.8 -41.7,34.3 -42.9,63.3 -0.8,20.2 8,38 21.9,50.6 34.1,7.6 65.9,13.2 68.8,10.7 26.5,-44 34.2,-87.6 35.7,-99.6 -1.2,-1.5 -0.6,-0.5 -1.9,-2 z"
   id="path142"
   style="fill:url(#SVGID_14_)" />
		<path
   class="st99"
   d="m 463.1,132.3 c -1.5,36.4 -35.4,65.4 -71.8,63.9 -36.4,-1.5 -68.5,-32.9 -67,-69.3 1.5,-36.4 36.3,-68 72.7,-66.5 36.4,1.5 67.6,35.5 66.1,71.9 z"
   id="path144" />
		<path
   class="st40"
   d="m 346.4,133 c -4.5,-7 -10.3,-8.8 -18.2,-6.2 0,0.2 -4.5,1.2 -4.5,1.4 -0.6,14.7 4.3,26.9 12,38.2 l 42.9,12.5 c 0,0 -27.5,-38.5 -32.2,-45.9 z"
   id="path146" />
		<path
   class="st38"
   d="m 412.8,189 c 0,0 -37.7,-11.1 -78.4,-23.2 11.3,16.8 34.4,30.9 56.2,31.8 9.1,0.4 18.5,-2.4 26.5,-5.4 -1,-1.1 -2.5,-2.2 -4.3,-3.2 z"
   id="path148" />
	</g>
	<g
   id="g154">
		<path
   class="st1"
   d="M 335.6,75.4 C 364.1,45 412,43.6 442.4,72.1 c 30.4,28.5 31.8,76.5 3.2,106.8 -28.6,30.3 -76.5,31.8 -106.8,3.2 C 308.4,153.6 307,105.7 335.6,75.4 Z m 6,5.6 c -25.4,27 -24.2,69.7 2.9,95.2 27.1,25.5 69.7,24.2 95.2,-2.9 25.4,-27 24.2,-69.7 -2.9,-95.2 C 409.7,52.6 367,54 341.6,81 Z"
   id="path152" />
	</g>
	<path
   class="st18"
   d="m 338.6,77.3 c 28.6,-30.3 76.5,-31.8 106.8,-3.2 30.3,28.6 31.8,76.5 3.2,106.8 -28.6,30.3 -76.5,31.8 -106.8,3.2 -30.3,-28.6 -31.7,-76.4 -3.2,-106.8 z m 6,5.7 c -25.4,27 -24.2,69.7 2.9,95.2 27.1,25.5 69.7,24.2 95.2,-2.9 25.4,-27 24.2,-69.7 -2.9,-95.2 C 412.7,54.6 370.1,56 344.6,83 Z"
   id="path156" />
	<path
   class="st27"
   d="m 351.8,195.1 0.7,-6.5 c 0.3,-3.1 -2,-5.8 -5.1,-6.1 v 0 c -3.1,-0.3 -5.8,2 -6.1,5.1 l -0.7,6.5 c -0.3,3.1 2,5.8 5.1,6.1 v 0 c 3.1,0.3 5.8,-2 6.1,-5.1 z"
   id="path158" />
	<path
   class="st27"
   d="m 360.6,201.1 0.7,-6.5 c 0.3,-3.1 -2,-5.8 -5.1,-6.1 v 0 c -3.1,-0.3 -5.8,2 -6.1,5.1 l -0.7,6.5 c -0.3,3.1 2,5.8 5.1,6.1 v 0 c 3.1,0.3 5.8,-2 6.1,-5.1 z"
   id="path160" />
	<path
   class="st27"
   d="m 369.7,205.4 0.7,-6.5 c 0.3,-3.1 -2,-5.8 -5.1,-6.1 v 0 c -3.1,-0.3 -5.8,2 -6.1,5.1 l -0.7,6.5 c -0.3,3.1 2,5.8 5.1,6.1 v 0 c 3,0.3 5.8,-2 6.1,-5.1 z"
   id="path162" />
	<g
   id="g172">
		<g
   id="g170">
			<path
   class="st27"
   d="m 275.7,67.3 11.6,3.1 3.7,-21.5 -8.3,-2.2 z"
   id="path164" />
			<path
   class="st37"
   d="m 286.8,56.5 c -4.5,0 -8.2,-3.7 -8.2,-8.2 0,-4.5 3.6,-8.1 8.2,-8.1 4.5,0 8.2,3.7 8.2,8.2 -0.1,4.6 -3.7,8.2 -8.2,8.1 z"
   id="path166" />
			<path
   class="st30"
   d="m 269.4,73.3 c -0.5,-0.1 -0.8,-0.7 -0.6,-1.2 2,-5.3 7.8,-8.3 13.5,-6.8 5.7,1.5 9.2,7 8.5,12.6 -0.1,0.5 -0.6,0.9 -1.1,0.7 z"
   id="path168" />
		</g>
	</g>
	<g
   id="g178">
		<path
   class="st38"
   d="m 412.1,129.5 c 4.5,-17 0.1,-32.9 -10,-35.6 -10.1,-2.7 -22,8.9 -26.5,25.8 -4.5,17 -0.1,32.9 10,35.6 10,2.8 21.9,-8.8 26.5,-25.8 z"
   id="path174" />
		<path
   class="st41"
   d="m 397.7,108.2 c 4.7,-2.8 10.2,-3.2 15,-1.5 1.7,6.4 1.7,14.5 -0.6,22.8 -1.1,4.2 -2.7,8.2 -4.7,11.6 -6.2,0.2 -12.4,-2.9 -15.9,-8.6 -4.9,-8.4 -2.2,-19.3 6.2,-24.3 z"
   id="path176" />
	</g>
</g>
</svg>
