<svg width="182" height="182" viewBox="0 0 182 182" fill="none" xmlns="http://www.w3.org/2000/svg">
<path d="M83 4.6188C87.9504 1.76068 94.0496 1.76068 99 4.6188L161.808 40.8812C166.759 43.7393 169.808 49.0214 169.808 54.7376V127.262C169.808 132.979 166.759 138.261 161.808 141.119L99 177.381C94.0496 180.239 87.9504 180.239 83 177.381L20.1917 141.119C15.2413 138.261 12.1917 132.979 12.1917 127.262V54.7376C12.1917 49.0214 15.2413 43.7393 20.1917 40.8812L83 4.6188Z" fill="#FBBC04"/>
<g filter="url(#filter0_d_4591_60230)">
<path d="M85 16.4641C88.7128 14.3205 93.2872 14.3205 97 16.4641L152.55 48.5359C156.263 50.6795 158.55 54.641 158.55 58.9282V123.072C158.55 127.359 156.263 131.321 152.55 133.464L97 165.536C93.2872 167.679 88.7128 167.679 85 165.536L29.45 133.464C25.7372 131.321 23.45 127.359 23.45 123.072V58.9282C23.45 54.641 25.7372 50.6795 29.45 48.5359L85 16.4641Z" fill="url(#paint0_linear_4591_60230)"/>
</g>
<rect x="48.5" y="67.5" width="85" height="55" rx="27.5" fill="white" stroke="#FEF7E0" stroke-width="3"/>
<path d="M99.8688 45.7976L93.9988 36.0437C92.6385 33.7833 89.3615 33.7833 88.0012 36.0437L82.1312 45.7976C81.9217 46.1456 81.5801 46.3938 81.1844 46.4855L70.0939 49.054C67.5238 49.6493 66.5112 52.7659 68.2405 54.7582L75.7032 63.355C75.9694 63.6617 76.0999 64.0633 76.0648 64.468L75.0805 75.8094C74.8524 78.4376 77.5036 80.3638 79.9327 79.3347L90.4149 74.8939C90.7889 74.7355 91.2111 74.7355 91.5851 74.8939L102.067 79.3347C104.496 80.3638 107.148 78.4376 106.919 75.8094L105.935 64.468C105.9 64.0633 106.031 63.6617 106.297 63.355L113.759 54.7582C115.489 52.7659 114.476 49.6493 111.906 49.054L100.816 46.4855C100.42 46.3938 100.078 46.1456 99.8688 45.7976Z" fill="#FCC934" stroke="url(#paint1_linear_4591_60230)" stroke-width="2"/>
<path fill-rule="evenodd" clip-rule="evenodd" d="M94.76 61.27L100.49 67L99 68.49L93.27 62.76C92.2 63.53 90.91 64 89.5 64C85.91 64 83 61.09 83 57.5C83 53.91 85.91 51 89.5 51C93.09 51 96 53.91 96 57.5C96 58.91 95.53 60.2 94.76 61.27ZM89.5 53C87.01 53 85 55.01 85 57.5C85 59.99 87.01 62 89.5 62C91.99 62 94 59.99 94 57.5C94 55.01 91.99 53 89.5 53Z" fill="#E37400"/>
<defs>
<filter id="filter0_d_4591_60230" x="19.4492" y="10.8564" width="143.102" height="160.287" filterUnits="userSpaceOnUse" color-interpolation-filters="sRGB">
<feFlood flood-opacity="0" result="BackgroundImageFix"/>
<feColorMatrix in="SourceAlpha" type="matrix" values="0 0 0 0 0 0 0 0 0 0 0 0 0 0 0 0 0 0 127 0" result="hardAlpha"/>
<feOffset/>
<feGaussianBlur stdDeviation="2"/>
<feColorMatrix type="matrix" values="0 0 0 0 0.890196 0 0 0 0 0.454902 0 0 0 0 0 0 0 0 0.2 0"/>
<feBlend mode="normal" in2="BackgroundImageFix" result="effect1_dropShadow_4591_60230"/>
<feBlend mode="normal" in="SourceGraphic" in2="effect1_dropShadow_4591_60230" result="shape"/>
</filter>
<linearGradient id="paint0_linear_4591_60230" x1="161" y1="-18" x2="-0.499984" y2="221" gradientUnits="userSpaceOnUse">
<stop offset="0.213542" stop-color="#FCC934"/>
<stop offset="1" stop-color="#FEEFC3"/>
</linearGradient>
<linearGradient id="paint1_linear_4591_60230" x1="91" y1="7" x2="91" y2="85" gradientUnits="userSpaceOnUse">
<stop stop-color="#FEF7E0"/>
<stop offset="1" stop-color="#FEF7E0" stop-opacity="0"/>
</linearGradient>
</defs>
</svg>
